# xmcd
#
# Track frame offsets: 
#        150
#        24281
#        51992
#        71802
#        93393
#        113541
#        140923
#        160485
#
# Disc length: 2484 seconds
#
# Revision: 1
# Processed by: cddbd v1.5.2PL0 Copyright (c) Steve Scherf et al.
# Submitted via: ExactAudioCopy v1.0b3
#
DISCID=6e09b208
DTITLE=Schroeder-Headz - Newdays
DYEAR=2010
DGENRE=Jazz
TTITLE0=no sign
TTITLE1=absence of absolutes
TTITLE2=newdays
TTITLE3=another hero
TTITLE4=exodus
TTITLE5=polka dots fish
TTITLE6=boobies-hi
TTITLE7=T.V.G.
EXTD=YEAR: 2010
EXTT0=
EXTT1=
EXTT2=
EXTT3=
EXTT4=
EXTT5=
EXTT6=
EXTT7=
PLAYORDER=
